<mxfile host="app.diagrams.net" modified="2024-03-27T14:26:52.982Z" agent="Mozilla/5.0 (Windows NT 10.0; Win64; x64) AppleWebKit/537.36 (KHTML, like Gecko) Chrome/122.0.0.0 Safari/537.36 Edg/122.0.0.0" etag="qXYAaezveZC5NrHIy9eI" version="24.2.0" type="github">
  <diagram name="第 1 页" id="fsvGUQWRdXILnf2-Mr_h">
    <mxGraphModel dx="1083" dy="1247" grid="0" gridSize="10" guides="1" tooltips="1" connect="1" arrows="1" fold="1" page="0" pageScale="1" pageWidth="827" pageHeight="1169" math="0" shadow="0">
      <root>
        <mxCell id="0" />
        <mxCell id="1" parent="0" />
        <mxCell id="m6TBTzie53WVUKV_vHl5-1" value="" style="image;html=1;image=img/lib/clip_art/computers/Server_128x128.png" vertex="1" parent="1">
          <mxGeometry x="-231" y="-92" width="80" height="80" as="geometry" />
        </mxCell>
        <mxCell id="m6TBTzie53WVUKV_vHl5-12" value="Text" style="text;strokeColor=none;fillColor=none;html=1;align=center;verticalAlign=middle;whiteSpace=wrap;rounded=0;fontSize=16;" vertex="1" parent="1">
          <mxGeometry x="204" y="199" width="60" height="30" as="geometry" />
        </mxCell>
      </root>
    </mxGraphModel>
  </diagram>
</mxfile>
